<svg id="prefix__Layer_1" xmlns="http://www.w3.org/2000/svg" viewBox="0 0 1595.12 645.39"><defs><style>.prefix__cls-1{stroke:#203b71;stroke-miterlimit:10;stroke-width:6.27px}.prefix__cls-1,.prefix__cls-2{fill:#203b71}.prefix__cls-3{fill:#b99ac8}</style></defs><g id="prefix__Segment"><path class="prefix__cls-2" d="M208.95 247.16c5.52-.06 10.06-2.31 14.18-5.76 3.53-2.96 6.98-6.08 11.48-7.72 10.88-3.98 21.38-4.09 30.45 3.91 7.97 7.03 22.85 5.49 29.29-.73 9.44-9.13 5.25-20.48-5.64-24.47-7.98-2.93-15.61-1.85-22.41 3.41-7.2 5.56-15.4 8.24-24.54 8.35-4.61.05-8.94-.92-12.63-3.61-6.4-4.67-12.8-3.88-19.27-.39-5.67 3.06-9.9 7.38-11.67 13.66-2.16 7.66 2.54 13.48 10.78 13.37zM220.17 436.38c2.84.59 5.43-.87 7.73-2.62 4.19-3.18 8.91-4.37 14.07-4.27 8.84.17 16.85 2.48 23.91 8 7.34 5.73 15.52 6.66 24.22 2.96 5.5-2.34 8.93-6.37 9.38-12.11.46-5.95-2.64-10.82-7.81-13.56-8.7-4.61-17.28-6.67-28.52 2.58-4.25 3.49-9.3 4.88-14.85 5.14-10.33.49-18.31-4.11-25.55-10.59-4.52-4.05-9.79-5.71-15.95-5.44-6.29.27-10.19 7.21-9.17 11.77 2.44 10.91 14.14 18.49 22.53 18.16zM141.54 291.78c0 1.86.03 2.74 0 3.62-.09 2.09.17 4.25 2.43 4.93 2.17.65 3.74-1.07 5.03-2.54 2.39-2.72 4-6 6.53-8.66 5.48-5.77 13.69-6.02 19.03-.28 2.05 2.21 4.4 4.04 6.83 5.72 2.57 1.77 5.68 1.33 8.45.4 10.82-3.63 17.38-15.19 14.45-26.1-2.3-8.53-9.65-11.01-17.69-8.05-3.53 1.3-6.03 4.09-8.41 6.91-3.64 4.3-7.79 7.77-13.73 8.79-4.33.75-6.26.2-8.8-3.42-2.63-3.75-3.65-3.86-6.84-.68-3.76 3.74-7.17 13.28-7.27 19.36zM141.57 361.08c.25 7.86 2.87 14.87 8.12 20.85 1.53 1.75 3.3 1.61 4.72-.19 1.79-2.28 2.79-5.24 6.69-5.15 5.1.11 9.32 1.93 13.09 5.14 3.27 2.79 5.58 6.49 9.12 9.03 4.52 3.24 9.39 4.36 14.52 1.88 5.07-2.45 6.96-7.05 7.02-12.27.1-8.73-3.48-15.84-11.32-20.19-6.16-3.42-12.05-3.79-16.54 2.17-8.18 10.84-18.79 7.26-24.97-2.26-1.25-1.93-2.34-3.94-4.16-5.49-1.28-1.09-2.58-2-4.2-1.32-1.58.66-2.09 2.19-2.08 3.84v3.96z"/><path class="prefix__cls-3" d="M222.58 275.38c-.86 9.23 8.06 17.57 17.66 17.49 11.71-.1 21.49-9.37 21.54-20.68.05-10.1-7.81-17.61-18.31-17.6-11.79.01-21.41 10.23-20.89 20.8zM243.85 398.77c9.5.42 18.11-7.01 18.1-17.61-.02-11.12-9.9-20.02-21.58-20.4-10.12-.33-17.82 8.7-17.96 17.8-.14 9.33 10.47 21.29 21.44 20.22z"/><path class="prefix__cls-2" d="M301.15 470.03c5.87.92 10.92-2.23 16.24-4.5 10.11-4.32 20.55-6.26 31.37-3.13 3.02.87 5.73.16 8.14-.69 6.11-2.16 11.87-5.13 16.21-10.16 1.64-1.89 2.75-3.95 1.61-6.28-1.15-2.34-3.6-2.95-6.04-2.75-5.1.43-9.91 1.95-14.09 4.87-6.72 4.69-13.74 8.49-22.18 9.29-5.99.57-11.54-.25-16.82-3.18-9.04-5.01-18.03-4.39-26.75.79-2.78 1.65-4.72 4.15-4.49 7.58.23 3.43 3 4.89 5.67 6.31 3.37 1.79 7.04 2.14 11.14 1.86zM303.3 203.29c4.55-.04 8.42-1.05 11.97-3.03 12.86-7.2 24.59-3.37 35.89 3.61 5.52 3.41 10.87 7.02 17.82 6.72 2.12-.09 4.57.25 5.58-2.11.98-2.27.43-4.36-1.44-6.29-5.79-5.97-12.68-9.87-20.96-11.41-1.49-.28-2.92.07-4.31.51-8.98 2.82-17.64.89-26.35-1.43-5.26-1.4-9.44-5.13-14.93-6.01-6.49-1.05-12.81-.92-18.47 2.63-4.87 3.05-5.04 7.13-1.03 11.24 4.58 4.69 10.62 5.16 16.23 5.59zM149.85 327.8c.22 4.64 1.59 9.26 4.44 13.31 3.83 5.44 10.23 5.55 14.82.46 6.16-6.84 6.16-21.07 0-27.9-5.38-5.96-12.49-4.87-16.37 2.73-1.75 3.43-2.79 7.19-2.88 11.4zM256.5 467.89c2.17-.17 4.84-.39 7.24-1.8 3.24-1.9 4.19-4.63 2.27-7.77-3.88-6.36-10.21-8.97-17.3-9.98-3.18-.46-6.52-.65-9.7.4-5.83 1.92-7 6.86-2.74 11.19 4.46 4.54 13.46 7.91 20.22 7.96zM245.43 205.62c6.7-.53 13.31-2.23 18.41-7.44 1.96-2 3.84-4.42 2.88-7.32-.98-2.94-3.65-4.21-6.78-4.68-6.6-.99-12.7.25-18.19 3.92-2.51 1.68-5.6 2.6-7.07 5.71-1.73 3.66-.65 7.03 3.14 8.49 1.14.44 2.31.87 3.51 1.08 1.21.21 2.46.15 4.08.23zM180.49 424.52c3.2 0 4.54-1.85 4.14-5.7-.48-4.69-2.45-8.78-5.35-12.48-2.75-3.5-5.81-6.62-10.22-8.14-1.83-.63-3.59-1.29-5.33.16-1.89 1.58-1.98 3.65-1.41 5.72 1.85 6.71 5.78 12.12 11.02 16.73 2.09 1.83 4.1 3.7 7.15 3.71zM166.74 255.94c2.3.23 4.41-1.19 6.12-2.54 6.1-4.84 10.98-10.59 11.84-18.67.2-1.87.15-3.78-1.6-5.03-1.74-1.24-3.62-.99-5.36.04-8.06 4.78-13.17 11.78-15.5 20.62-.86 3.29 1.23 5.65 4.5 5.58zM183.88 215.96c1.55.7 2.67.01 3.63-.61 1.65-1.07 3.58-1.38 5.16-.75 5.45 2.17 10.07.09 14.62-2.33 4.97-2.64 9.23-6.09 11.95-11.09.7-1.29 1.39-2.71.53-4.02-.88-1.33-2.43-1.13-3.95-.98-5.25.52-9.25 3.35-13.28 6.33-4.69 3.45-9.56 6.67-14.42 9.88-1.55 1.02-3.05 2.01-4.24 3.58zM185.28 438.85c2.84 2.73 5.97 4.4 8.91 6.3 6.1 3.93 11.08 9.53 18.28 11.83.64.2 1.24.59 1.89.67 1.86.22 3.97.86 5.31-.97 1.32-1.82.2-3.5-.86-5.1-4.41-6.63-10.74-10.76-18.32-13.03-2.25-.67-4.77-.82-7.14.62-1.42.86-3.31.65-4.88-.15-.91-.46-1.72-.99-3.18-.16zM142.51 325.53c.14-3.87-.4-7.67-1.63-11.33-.42-1.24-.89-3.01-2.76-2.8-1.63.17-1.94 1.86-2.12 3.04-.85 5.64-1.7 11.3-.94 17.04.29 2.17.44 4.37.88 6.52.26 1.24.74 2.83 2.24 2.95 1.4.12 1.93-1.49 2.33-2.49 1.63-4.14 2.09-8.5 2.01-12.92zM266.32 313.83s0-.76.89-1.58c6.14-5.59 12.71-9.05 21.7-7.19 14.09 2.92 21.49 20.27 13.33 31.91-.72 1.03-2.92 2.41-2.91 2.43.02.03 2.95-2.38 2.91-2.43-.07-.09-8.3 9.57-18.42 9.63-2.96.02-5.56-.79-6.44-1.08-3.26-1.09-6.16-2.97-8.73-5.52-9.97-9.9-21.63-11.88-34.65-6.95-3.92 1.48-6.84 4.47-9.69 7.38-7.1 7.24-17.43 6.5-23.86.03-5.34-5.38-7.25-12.11-5.54-19.45 1.62-7 5.7-12.26 12.91-14.63 6.88-2.26 12.44.22 17.28 4.99 3.47 3.41 7.09 6.56 12.03 7.93 5.89 1.63 11.64 1.02 17.63.44 1.02-.1 1.91-.3 2.72-.58 1.05-.36 2.54-1 5.56-3.45 2.95-2.4 4.03-3.59 4.19-3.46.17.14-.86 1.59-.89 1.58z"/></g><path class="prefix__cls-1" d="M418.16 289.16c-3.92-7.68-14.86-14.7-30.86-14.7-13.88 0-28.09 5.72-28.09 16.5 0 18.94 75.11 16.82 75.11 55.36 0 23.18-22.21 33.8-47.35 33.8-23.51 0-39.19-12.25-45.56-28.58l14.21-3.59c5.23 12.58 18.62 17.96 32.01 17.96 18.45 0 29.88-7.51 29.88-17.63 0-26.95-74.13-21.56-74.13-56.67 0-21.22 23.51-30.69 45.56-30.69 23.19 0 38.37 12.57 43.27 24.66l-14.05 3.59zM471.92 263.36h76.42v14.04h-61.4v34.46h57.31v14.04h-57.31v37.73h62.21v14.04h-77.24v-114.3zM627.57 380.27c-31.84 0-54.37-25.8-54.37-59.76s23.02-59.6 55.68-59.6 55.68 24.98 55.68 58.78c0 20.41-6.7 38.21-21.39 48.98l13.07 23.19h-15.03l-7.84-15.19c-1.47-2.78-.49-6.37.33-9.47l-2.78-.82c-.82 3.1-1.63 6.85-4.25 8.49-4.41 2.61-9.47 5.39-19.11 5.39zm42.13-60.58c0-23.51-16-44.58-40.66-44.58s-40.66 21.39-40.66 45.39 15.68 45.72 39.51 45.72c6.86 0 12.9-1.96 18.46-5.23l-13.23-23.51h15.03l5.55 10.94c1.47 2.93.82 6.69.49 9.96l2.78.16c.33-3.1.65-6.86 2.29-9.47 5.55-8.17 10.45-19.27 10.45-29.39zM814.25 337.98c0 27.27-20.58 42.12-47.36 42.12s-47.19-14.86-47.19-42.12v-74.63h15.35v72.67c.16 15.67 13.56 29.71 32.01 29.71s32.01-14.04 31.84-29.88v-72.5h15.19l.16 74.63zM856.25 263.36h76.42v14.04h-61.4v34.46h57.31v14.04h-57.31v37.73h62.21v14.04h-77.24v-114.3zM985.45 377.66h-15.19v-114.3h15.19l57.15 78.7c4.25 5.72 7.19 14.54 9.47 21.4l2.61-.98c-2.12-6.7-5.06-15.52-5.06-22.7v-76.42h15.35v114.3h-15.35l-57.15-78.55c-4.25-5.72-7.02-14.53-9.31-21.39l-2.78.98c2.29 6.7 5.06 15.52 5.06 22.7v76.26zM1128.53 377.66V277.4h-32.82v-14.04h80.99v14.04h-32.82v100.26h-15.35zM1213.47 263.36h15.19v114.3h-15.19v-114.3zM1301.01 263.03h19.43l44.58 114.47h-16.82l-16-40.66h-42.29l-14.86 40.66h-16.98l42.95-114.47zm11.76 21.73c-1.31-2.94-.65-7.02-.65-10.29h-2.94c0 3.27.65 7.35-.49 10.29l-16.33 39.35h36.74l-16.33-39.35zM1468.58 363.62v14.04h-72.83v-114.3h15.03v100.26h57.8z"/></svg>