<svg id="prefix__Layer_1" xmlns="http://www.w3.org/2000/svg" viewBox="0 0 167.93 167.93"><defs><style>.prefix__cls-1{fill:#b99ac8}.prefix__cls-2{fill:#203b71}</style></defs><g id="prefix__Segment"><path class="prefix__cls-2" d="M57.87 51.22c2.41-.02 4.39-1.01 6.19-2.51 1.54-1.29 3.05-2.65 5.01-3.37 4.75-1.74 9.33-1.78 13.29 1.71 3.48 3.07 9.98 2.4 12.79-.32 4.12-3.99 2.29-8.94-2.46-10.69-3.48-1.28-6.82-.81-9.79 1.49-3.15 2.43-6.72 3.6-10.72 3.64-2.01.02-3.9-.4-5.52-1.58-2.79-2.04-5.59-1.69-8.42-.17-2.48 1.34-4.32 3.22-5.1 5.96-.94 3.34 1.11 5.89 4.71 5.84zM62.77 133.84c1.24.26 2.37-.38 3.37-1.14 1.83-1.39 3.89-1.91 6.14-1.86 3.86.08 7.36 1.08 10.44 3.49 3.2 2.5 6.78 2.91 10.58 1.29 2.4-1.02 3.9-2.78 4.1-5.29.2-2.6-1.15-4.72-3.41-5.92-3.8-2.02-7.54-2.91-12.45 1.13-1.85 1.52-4.06 2.13-6.48 2.25-4.51.21-8-1.8-11.16-4.63-1.97-1.77-4.27-2.49-6.96-2.38-2.75.12-4.45 3.15-4.01 5.14 1.06 4.76 6.18 8.07 9.84 7.93zM28.44 70.71c0 .81.01 1.2 0 1.58-.04.91.08 1.86 1.06 2.15.95.29 1.63-.47 2.19-1.11 1.04-1.19 1.75-2.62 2.85-3.78 2.39-2.52 5.98-2.63 8.31-.12.9.96 1.92 1.77 2.98 2.5 1.12.77 2.48.58 3.69.17 4.72-1.59 7.59-6.63 6.31-11.4-1-3.73-4.21-4.81-7.72-3.51-1.54.57-2.63 1.79-3.67 3.02-1.59 1.88-3.4 3.39-5.99 3.84-1.89.33-2.73.09-3.84-1.49-1.15-1.64-1.59-1.68-2.99-.3-1.64 1.64-3.13 5.8-3.17 8.45zM28.45 100.97c.11 3.43 1.25 6.49 3.54 9.11.67.76 1.44.7 2.06-.08.78-1 1.22-2.29 2.92-2.25 2.23.05 4.07.84 5.71 2.25 1.43 1.22 2.44 2.83 3.98 3.94 1.97 1.42 4.1 1.9 6.34.82 2.21-1.07 3.04-3.08 3.06-5.36.04-3.81-1.52-6.92-4.94-8.82-2.69-1.49-5.26-1.65-7.22.95-3.57 4.73-8.2 3.17-10.9-.99-.55-.84-1.02-1.72-1.81-2.4-.56-.48-1.13-.87-1.84-.58-.69.29-.91.96-.91 1.68v1.73z"/><path class="prefix__cls-1" d="M63.82 63.54c-.37 4.03 3.52 7.67 7.71 7.64 5.11-.05 9.38-4.09 9.41-9.03.02-4.41-3.41-7.69-8-7.69-5.15 0-9.35 4.47-9.12 9.08zM73.11 117.42c4.15.18 7.91-3.06 7.9-7.69 0-4.86-4.32-8.74-9.42-8.91-4.42-.15-7.78 3.8-7.84 7.77-.06 4.08 4.57 9.3 9.36 8.83z"/><path class="prefix__cls-2" d="M98.13 148.54c2.56.4 4.77-.97 7.09-1.96 4.41-1.89 8.97-2.73 13.7-1.37 1.32.38 2.5.07 3.55-.3 2.67-.94 5.18-2.24 7.08-4.44.71-.83 1.2-1.72.7-2.74-.5-1.02-1.57-1.29-2.64-1.2-2.23.19-4.33.85-6.15 2.12-2.93 2.05-6 3.71-9.69 4.06-2.61.25-5.04-.11-7.35-1.39-3.95-2.19-7.88-1.92-11.68.34-1.21.72-2.06 1.81-1.96 3.31.1 1.5 1.31 2.14 2.48 2.76 1.47.78 3.07.93 4.86.81zM99.07 32.07c1.99-.02 3.68-.46 5.23-1.32 5.62-3.14 10.74-1.47 15.67 1.58 2.41 1.49 4.75 3.06 7.78 2.93.93-.04 1.99.11 2.44-.92.43-.99.19-1.9-.63-2.75-2.53-2.61-5.54-4.31-9.15-4.98-.65-.12-1.27.03-1.88.22-3.92 1.23-7.7.39-11.51-.63-2.3-.61-4.12-2.24-6.52-2.63-2.84-.46-5.59-.4-8.07 1.15-2.13 1.33-2.2 3.11-.45 4.91 2 2.05 4.64 2.25 7.09 2.44zM32.07 86.43c.1 2.03.69 4.04 1.94 5.81 1.67 2.38 4.47 2.42 6.47.2 2.69-2.99 2.69-9.2 0-12.18-2.35-2.6-5.45-2.13-7.15 1.19-.77 1.5-1.22 3.14-1.26 4.98zM78.64 147.61c.95-.07 2.11-.17 3.16-.79 1.42-.83 1.83-2.02.99-3.39-1.7-2.78-4.46-3.92-7.55-4.36-1.39-.2-2.85-.28-4.24.17-2.55.84-3.06 3-1.2 4.89 1.95 1.98 5.88 3.45 8.83 3.47zM73.8 33.08c2.93-.23 5.81-.97 8.04-3.25.85-.87 1.68-1.93 1.26-3.2-.43-1.28-1.6-1.84-2.96-2.04-2.88-.43-5.54.11-7.94 1.71-1.1.73-2.45 1.14-3.09 2.49-.75 1.6-.29 3.07 1.37 3.71.5.19 1.01.38 1.53.47.53.09 1.08.07 1.78.1zM45.45 128.67c1.4 0 1.98-.81 1.81-2.49-.21-2.05-1.07-3.84-2.34-5.45-1.2-1.53-2.54-2.89-4.46-3.55-.8-.28-1.57-.57-2.33.07-.82.69-.86 1.59-.61 2.5.81 2.93 2.52 5.29 4.81 7.3.91.8 1.79 1.62 3.12 1.62zM39.44 55.06c1 .1 1.93-.52 2.67-1.11 2.66-2.11 4.8-4.62 5.17-8.15.09-.82.07-1.65-.7-2.2-.76-.54-1.58-.43-2.34.02-3.52 2.09-5.75 5.14-6.77 9.01-.38 1.44.54 2.47 1.96 2.44zM46.93 37.6c.68.31 1.17 0 1.59-.27.72-.47 1.56-.6 2.25-.33 2.38.95 4.4.04 6.38-1.02 2.17-1.15 4.03-2.66 5.22-4.84.31-.56.61-1.18.23-1.75-.38-.58-1.06-.5-1.72-.43-2.29.23-4.04 1.46-5.8 2.76-2.05 1.51-4.17 2.91-6.3 4.32-.68.45-1.33.88-1.85 1.56zM47.54 134.92c1.24 1.19 2.61 1.92 3.89 2.75 2.66 1.72 4.84 4.16 7.98 5.16.28.09.54.26.82.29.81.1 1.73.38 2.32-.42.58-.8.09-1.53-.38-2.23-1.93-2.9-4.69-4.7-8-5.69-.98-.29-2.08-.36-3.12.27-.62.37-1.44.28-2.13-.06-.4-.2-.75-.43-1.39-.07zM28.86 85.44c.06-1.69-.18-3.35-.71-4.95-.18-.54-.39-1.31-1.2-1.22-.71.08-.85.81-.93 1.33-.37 2.46-.74 4.93-.41 7.44.13.95.19 1.91.39 2.85.11.54.32 1.23.98 1.29.61.05.84-.65 1.02-1.09.71-1.81.91-3.71.88-5.64zM82.92 80.34s0-.33.39-.69c2.68-2.44 5.55-3.95 9.47-3.14 6.15 1.27 9.38 8.85 5.82 13.93-.32.45-1.28 1.05-1.27 1.06 0 .01 1.29-1.04 1.27-1.06-.03-.04-3.62 4.18-8.04 4.21-1.29 0-2.43-.34-2.81-.47-1.42-.47-2.69-1.29-3.81-2.41-4.35-4.32-9.44-5.19-15.13-3.03-1.71.65-2.99 1.95-4.23 3.22-3.1 3.16-7.61 2.84-10.42.01-2.33-2.35-3.16-5.29-2.42-8.49.71-3.06 2.49-5.36 5.64-6.39 3.01-.99 5.43.1 7.55 2.18 1.51 1.49 3.09 2.86 5.25 3.46 2.57.71 5.08.45 7.7.19.44-.04.83-.13 1.19-.25.46-.16 1.11-.44 2.43-1.51 1.29-1.05 1.76-1.57 1.83-1.51.07.06-.38.7-.39.69z"/></g></svg>